<svg width="69" height="69" viewBox="0 0 69 69" fill="none" xmlns="http://www.w3.org/2000/svg">
<g id="humbleicons:bell">
<path id="Union" fill-rule="evenodd" clip-rule="evenodd" d="M34.1034 5.92702C34.2075 5.82329 34.3501 5.76392 34.5 5.76392C34.6499 5.76392 34.7925 5.82329 34.8966 5.92702C35.0006 6.03054 35.0579 6.16964 35.0579 6.31339V12.4618C35.0579 12.6596 35.0961 12.8484 35.1657 13.0213C34.9442 13.0146 34.7223 13.0113 34.5 13.0113C34.2777 13.0113 34.0558 13.0146 33.8343 13.0213C33.9039 12.8484 33.9421 12.6596 33.9421 12.4618V6.31339C33.9421 6.16964 33.9994 6.03054 34.1034 5.92702ZM38.0579 12.4618C38.0579 12.7561 37.9731 13.0306 37.8267 13.2623C42.4494 13.9641 46.7615 16.1165 50.1098 19.4512C54.2511 23.5755 56.5787 29.1706 56.5787 35.006V58.0996H63.3102C64.1386 58.0996 64.8102 58.7712 64.8102 59.5996C64.8102 60.4281 64.1386 61.0996 63.3102 61.0996H55.0787H39.9254C39.8729 61.2945 39.8073 61.5217 39.7286 61.763C39.6135 62.116 39.4629 62.5231 39.274 62.9128C39.0939 63.2842 38.8347 63.7339 38.4688 64.0984C37.4151 65.1477 35.9874 65.7361 34.5 65.7361C33.0126 65.7361 31.5849 65.1477 30.5312 64.0984C29.7077 63.2782 29.1654 62.2288 28.9678 61.0996H13.9213H5.68982C4.86139 61.0996 4.18982 60.4281 4.18982 59.5996C4.18982 58.7712 4.86139 58.0996 5.68982 58.0996H12.4213V35.006C12.4213 29.1706 14.7489 23.5755 18.8902 19.4512C22.2385 16.1165 26.5506 13.9641 31.1733 13.2623C31.0269 13.0306 30.9421 12.7561 30.9421 12.4618V6.31339C30.9421 5.37003 31.3185 4.46655 31.9864 3.80137C32.6541 3.13639 33.5584 2.76392 34.5 2.76392C35.4416 2.76392 36.3459 3.13639 37.0136 3.80137C37.6815 4.46655 38.0579 5.37003 38.0579 6.31339V12.4618ZM53.5787 35.006V58.0996H15.4213V35.006C15.4213 29.9703 17.4299 25.1395 21.0072 21.5769C24.5846 18.014 29.438 16.0113 34.5 16.0113C39.562 16.0113 44.4154 18.014 47.9929 21.5769C51.5701 25.1395 53.5787 29.9703 53.5787 35.006Z" fill="url(#paint0_linear_740_2164)"/>
</g>
<defs>
<linearGradient id="paint0_linear_740_2164" x1="4.18982" y1="34.25" x2="64.8102" y2="34.25" gradientUnits="userSpaceOnUse">
<stop stop-color="#BE5CB6"/>
<stop offset="1" stop-color="#211636"/>
</linearGradient>
</defs>
</svg>
