<svg width="69" height="69" viewBox="0 0 69 69" fill="none" xmlns="http://www.w3.org/2000/svg">
<g id="ph_map-pin-light-01 2">
<path id="Vector" d="M34.95 44.25L44.83 54L64.58 34.5" stroke="white" stroke-width="3" stroke-linecap="round" stroke-linejoin="round"/>
<g id="Group">
<path id="Vector_2" d="M26.58 17.79C24.55 17.79 22.57 18.39 20.89 19.52C19.21 20.65 17.89 22.24 17.12 24.12C16.34 25.99 16.14 28.05 16.54 30.04C16.94 32.03 17.91 33.85 19.34 35.28C20.77 36.71 22.6 37.69 24.58 38.08C26.57 38.48 28.63 38.27 30.5 37.5C32.37 36.72 33.97 35.41 35.1 33.73C36.23 32.05 36.83 30.07 36.83 28.04C36.83 25.32 35.75 22.72 33.83 20.8C31.91 18.88 29.3 17.8 26.59 17.8L26.58 17.79ZM31.54 32.99C30.23 34.3 28.44 35.04 26.58 35.04C25.19 35.04 23.84 34.63 22.69 33.86C21.54 33.09 20.64 32 20.11 30.72C19.58 29.44 19.44 28.03 19.71 26.67C19.98 25.31 20.65 24.06 21.63 23.08C22.61 22.1 23.86 21.43 25.22 21.16C26.58 20.89 27.99 21.03 29.27 21.56C30.55 22.09 31.65 22.99 32.41 24.14C33.18 25.29 33.59 26.65 33.59 28.03C33.59 29.89 32.85 31.67 31.54 32.99Z" fill="white"/>
<path id="Vector_3" d="M26.58 60.5101C22.54 57.3901 6.62999 44.1001 6.62999 28.0301C6.62999 22.7401 8.72999 17.6701 12.47 13.9301C16.21 10.1901 21.28 8.0901 26.57 8.0901C31.86 8.0901 36.93 10.1901 40.67 13.9301C44.41 17.6701 46.51 22.7401 46.51 28.0301C46.51 34.2701 44.11 40.0901 40.94 45.0601L43.3 47.3901C47.53 40.9201 49.74 34.3301 49.74 28.0301C49.74 21.8801 47.29 15.9901 42.94 11.6501C38.59 7.3001 32.7 4.8601 26.56 4.8501C20.41 4.8501 14.52 7.3001 10.18 11.6501C5.83999 16.0001 3.40999 21.8801 3.39999 28.0301C3.39999 36.3601 7.26999 45.2101 14.58 53.6201C17.88 57.4301 21.59 60.8701 25.66 63.8601C25.93 64.0501 26.26 64.1501 26.59 64.1501C26.92 64.1501 27.25 64.0501 27.52 63.8601C31.58 60.8701 35.29 57.4301 38.6 53.6201C38.77 53.4301 38.92 53.2301 39.09 53.0401L36.77 50.7501C32.67 55.6201 28.43 59.1101 26.6 60.5201L26.58 60.5101Z" fill="white"/>
</g>
</g>
</svg>
