<svg width="65" height="73" viewBox="0 0 65 73" fill="none" xmlns="http://www.w3.org/2000/svg">
<g id="iconoir:user">
<path id="Vector" d="M4.64285 70.7043V66.7463C4.64285 59.3983 7.58241 52.3512 12.8148 47.1554C18.0473 41.9595 25.144 39.0405 32.5438 39.0405M32.5438 39.0405C39.9436 39.0405 47.0403 41.9595 52.2727 47.1554C57.5052 52.3512 60.4447 59.3983 60.4447 66.7463V70.7043M32.5438 39.0405C36.7722 39.0405 40.8275 37.3725 43.8175 34.4035C46.8074 31.4344 48.4872 27.4075 48.4872 23.2086C48.4872 19.0097 46.8074 14.9828 43.8175 12.0138C40.8275 9.04471 36.7722 7.37671 32.5438 7.37671C28.3153 7.37671 24.2601 9.04471 21.2701 12.0138C18.2801 14.9828 16.6004 19.0097 16.6004 23.2086C16.6004 27.4075 18.2801 31.4344 21.2701 34.4035C24.2601 37.3725 28.3153 39.0405 32.5438 39.0405Z" stroke="url(#paint0_linear_652_1922)" stroke-width="3" stroke-linecap="round" stroke-linejoin="round"/>
</g>
<defs>
<linearGradient id="paint0_linear_652_1922" x1="4.64285" y1="39.0405" x2="60.4447" y2="39.0405" gradientUnits="userSpaceOnUse">
<stop stop-color="#BE5CB6"/>
<stop offset="1" stop-color="#211636"/>
</linearGradient>
</defs>
</svg>
